# xmcd
#
# Track frame offsets:
#  150
#  17560
#  45082
#  66385
#  84302
#  129390
#  147432
#  165482
#  194627
#  213290
#  229672
#
# Disc length: 3356 seconds
#
# Revision: 1
# Processed by: cddbd v1.5.2PL0 Copyright (c) Steve Scherf et al.
# Submitted via: Collectorz.com_Music_Collector 6.11
#
DISCID=8e0d1a0b
DTITLE=The Hoax - Sound Like This
DYEAR=1994
DGENRE=Blues/Rock
TTITLE0=Lizard Like Me
TTITLE1=Much Too Much
TTITLE2=Scaramouche
TTITLE3=Wake Me Up
TTITLE4=Swallow My Pride
TTITLE5=Twenty Ton Weight
TTITLE6=Headless Chicken
TTITLE7=Driving Blind
TTITLE8=Head Neck
TTITLE9=Don't Bust A Valve
TTITLE10=Take The Money And Run
EXTD=
EXTT0=
EXTT1=
EXTT2=
EXTT3=
EXTT4=
EXTT5=
EXTT6=
EXTT7=
EXTT8=
EXTT9=
EXTT10=
PLAYORDER=
